<svg width="360" height="147" viewBox="0 0 360 147" fill="none" xmlns="http://www.w3.org/2000/svg">
<path fill-rule="evenodd" clip-rule="evenodd" d="M0 38.3711L15 30.5191C30 22.6672 60 7.32023 90 2.32354C120 -3.03006 150 2.32354 180 9.81857C210 17.6705 240 28.0208 270 30.5191C300 33.0175 330 28.0208 345 25.5224L360 22.6672V146.157H345C330 146.157 300 146.157 270 146.157C240 146.157 210 146.157 180 146.157C150 146.157 120 146.157 90 146.157C60 146.157 30 146.157 15 146.157H0V38.3711Z" fill="#343D68"/>
</svg>
